<?xml version="1.0" encoding="UTF-8" standalone="no"?>
<svg width="45px" height="75px" viewBox="0 0 45 75" version="1.1" xmlns="http://www.w3.org/2000/svg" xmlns:xlink="http://www.w3.org/1999/xlink">
    <!-- Generator: Sketch 39.1 (31720) - http://www.bohemiancoding.com/sketch -->
    <title>Icon</title>
    <desc>Created with Sketch.</desc>
    <defs></defs>
    <g id="Welcome" stroke="none" stroke-width="1" fill="none" fill-rule="evenodd" stroke-linecap="round" stroke-linejoin="round">
        <g id="Desktop" transform="translate(-337.000000, -1156.000000)" stroke-width="5">
            <g id="skills" transform="translate(180.000000, 663.000000)">
                <g id="Group-7" transform="translate(139.000000, 490.000000)">
                    <g id="Icon" transform="translate(21.000000, 6.000000)">
                        <path d="M29.25,28.1238158 C29.25,32.7839321 25.5087857,36.5609606 20.8928571,36.5609606 L18.1071429,36.5609606 C13.4912143,36.5609606 9.75,32.7839321 9.75,28.1238158 L9.75,8.43714475 C9.75,3.77702847 13.4912143,0 18.1071429,0 L20.8928571,0 C25.5087857,0 29.25,3.77702847 29.25,8.43714475 L29.25,28.1238158 L29.25,28.1238158 Z" id="Stroke-455" stroke="#43484D" fill="#D8D8D8"></path>
                        <path d="M39,29.5300066 C39,38.848833 30.2695714,46.4042961 19.5,46.4042961 C8.73042857,46.4042961 0,38.848833 0,29.5300066" id="Stroke-456" stroke="#969A9F"></path>
                        <path d="M19.6282895,51.7478211 L19.6282895,62.9973475" id="Stroke-457" stroke="#969A9F"></path>
                        <path d="M5.57142857,68.7044534 L33.4285714,68.7044534" id="Stroke-458" stroke="#969A9F"></path>
                    </g>
                </g>
            </g>
        </g>
    </g>
</svg>