<?xml version="1.0" encoding="UTF-8" standalone="no"?>
<svg width="80px" height="80px" viewBox="0 0 80 80" version="1.1" xmlns="http://www.w3.org/2000/svg" xmlns:xlink="http://www.w3.org/1999/xlink">
    <!-- Generator: Sketch 39.1 (31720) - http://www.bohemiancoding.com/sketch -->
    <title>brush</title>
    <desc>Created with Sketch.</desc>
    <defs></defs>
    <g id="Welcome" stroke="none" stroke-width="1" fill="none" fill-rule="evenodd">
        <g id="Desktop" transform="translate(-888.000000, -1307.000000)" fill="#FFFFFF">
            <g id="skills" transform="translate(180.000000, 663.000000)">
                <g id="creative-skills" transform="translate(18.000000, 408.000000)">
                    <path d="M762.930437,243.824627 C762.900003,243.855062 762.870437,243.886366 762.840003,243.917671 L725.349582,284.188091 C724.837408,283.524613 724.290452,282.875048 723.672191,282.258526 C723.057409,281.645483 722.398278,281.106353 721.721757,280.602005 L762.056525,243.158541 C762.087829,243.129845 762.118264,243.10028 762.148699,243.069845 C762.304351,242.913323 762.558264,242.913323 762.714785,243.068975 L762.930437,243.283758 C763.00522,243.35854 763.043481,243.449845 763.043481,243.555062 C763.043481,243.65941 763.00522,243.750714 762.930437,243.824627 M717.681758,303.483736 C712.539152,308.614169 705.549589,310.257646 698.128722,308.19156 C698.908722,306.031561 699.701765,303.181997 699.763504,300.392432 L699.763504,300.391563 C699.775678,299.850694 699.765243,299.253302 699.753069,298.609824 C699.685243,295.06113 699.607852,291.039392 703.473068,287.182003 C707.687849,282.978526 714.544368,282.978526 718.759149,287.182872 C720.868714,289.287219 721.983496,291.790696 721.983496,294.420261 C721.983496,297.497651 720.455671,300.71678 717.681758,303.483736 M770,243.556801 C770,241.593324 769.234783,239.748107 767.844349,238.360281 L767.629566,238.145499 C764.779132,235.300283 760.153917,235.2855 757.283483,238.097673 L714.853933,277.485484 C709.157414,276.268963 702.976547,277.851571 698.560026,282.257657 C692.595681,288.208959 692.721768,294.803739 692.79742,298.742868 C692.807855,299.282868 692.819159,299.783737 692.808724,300.238519 C692.73742,303.43417 691.03916,307.388082 690.393942,308.635908 C689.944377,309.498516 689.876551,310.50895 690.206116,311.423733 C690.535682,312.338515 691.233073,313.073297 692.129594,313.449819 C696.19481,315.160253 700.285243,316.000253 704.225242,316.000253 C711.133065,316.000253 717.575672,313.416775 722.59567,308.408082 C726.686973,304.326344 728.940015,299.35852 728.940015,294.420261 C728.940015,293.237652 728.808711,292.078522 728.562624,290.947219 L767.893914,248.698539 C769.252174,247.318539 769.99913,245.495061 770,243.556801" id="brush"></path>
                </g>
            </g>
        </g>
    </g>
</svg>