<?xml version="1.0" encoding="UTF-8" standalone="no"?>
<svg width="79px" height="79px" viewBox="0 0 79 79" version="1.1" xmlns="http://www.w3.org/2000/svg" xmlns:xlink="http://www.w3.org/1999/xlink">
    <!-- Generator: Sketch 39.1 (31720) - http://www.bohemiancoding.com/sketch -->
    <title>blue</title>
    <desc>Created with Sketch.</desc>
    <defs></defs>
    <g id="Welcome" stroke="none" stroke-width="1" fill="none" fill-rule="evenodd">
        <g id="Desktop" transform="translate(-888.000000, -1152.000000)">
            <g id="skills" transform="translate(180.000000, 663.000000)">
                <g id="Group-7" transform="translate(139.000000, 490.000000)">
                    <g id="blue" transform="translate(570.000000, 0.000000)">
                        <path d="M38.4904307,76.8387429 C59.695782,76.8387429 76.8861157,59.6484091 76.8861157,38.4430578 C76.8861157,17.2377066 59.695782,0.0473728378 38.4904307,0.0473728378 C17.2850794,0.0473728378 0.0947456755,17.2377066 0.0947456755,38.4430578 C0.0947456755,59.6484091 17.2850794,76.8387429 38.4904307,76.8387429 Z" id="Oval-1" stroke="#000000" fill="#FFFFFF"></path>
                        <g id="Zeiger" transform="translate(22.975826, 13.643377)">
                            <rect id="Rectangle-1" fill="#000000" x="13.9749871" y="0" width="3.07923445" height="24.7759942" rx="1.53961723"></rect>
                            <rect id="Rectangle-2" fill="#000000" transform="translate(8.550797, 29.205354) rotate(58.000000) translate(-8.550797, -29.205354) " x="7.01117999" y="20.1334561" width="3.07923445" height="18.1437969" rx="1.53961723"></rect>
                            <path d="M15.5146044,27.4762459 C16.9928306,27.4762459 18.1911697,26.2779068 18.1911697,24.7996806 C18.1911697,23.3214544 16.9928306,22.1231152 15.5146044,22.1231152 C14.0363782,22.1231152 12.838039,23.3214544 12.838039,24.7996806 C12.838039,26.2779068 14.0363782,27.4762459 15.5146044,27.4762459 Z" id="Oval-3" stroke="#000000" stroke-width="3" fill="#BDC3C7"></path>
                        </g>
                        <path d="M38.4667443,0.0947456755 C37.6033555,0.0947456755 36.9034406,0.789874628 36.9034406,1.6581151 L36.9034406,7.39009691 C36.9034406,8.25352201 37.5973361,8.95346634 38.4667443,8.95346634 C39.330133,8.95346634 40.0300479,8.25833739 40.0300479,7.39009691 L40.0300479,1.6581151 C40.0300479,0.794690008 39.3361524,0.0947456755 38.4667443,0.0947456755 Z M57.6571615,5.23680246 C56.9094448,4.80510808 55.9557363,5.05714997 55.5216161,5.80906827 L52.6556252,10.7731101 C52.2239126,11.5208582 52.4748716,12.4739755 53.2278011,12.9086796 C53.9755177,13.340374 54.9292263,13.0883321 55.3633465,12.3364138 L58.2293374,7.37237192 C58.66105,6.62462386 58.410091,5.67150654 57.6571615,5.23680246 Z M71.7055219,19.2851629 C71.2738275,18.5374463 70.3218707,18.2788667 69.5699524,18.7129869 L64.6059105,21.5789778 C63.8581625,22.0106903 63.5989406,22.9615936 64.0336447,23.7145232 C64.4653391,24.4622398 65.4172959,24.7208194 66.1692142,24.2866991 L71.133256,21.4207082 C71.8810041,20.9889957 72.1402259,20.0380924 71.7055219,19.2851629 Z M76.8475786,38.47558 C76.8475786,37.6121913 76.1524497,36.9122764 75.2842092,36.9122764 L69.5522274,36.9122764 C68.6888023,36.9122764 67.988858,37.6061719 67.988858,38.47558 C67.988858,39.3389688 68.6839869,40.0388837 69.5522274,40.0388837 L75.2842092,40.0388837 C76.1476343,40.0388837 76.8475786,39.3449882 76.8475786,38.47558 Z M71.7055219,57.6659972 C72.1372162,56.9182806 71.8851744,55.9645721 71.1332561,55.5304518 L66.1692142,52.6644609 C65.4214661,52.2327484 64.4683488,52.4837073 64.0336447,53.2366369 C63.6019503,53.9843535 63.8539922,54.938062 64.6059105,55.3721823 L69.5699524,58.2381732 C70.3177005,58.6698857 71.2708178,58.4189268 71.7055219,57.6659972 Z M57.6571615,71.7143576 C58.4048781,71.2826632 58.6634577,70.3307065 58.2293374,69.5787882 L55.3633465,64.6147463 C54.931634,63.8669982 53.9807307,63.6077764 53.2278011,64.0424805 C52.4800845,64.4741749 52.2215049,65.4261316 52.6556252,66.1780499 L55.5216161,71.1420918 C55.9533286,71.8898399 56.9042319,72.1490617 57.6571615,71.7143576 Z M38.4667443,76.8564144 C39.3301331,76.8564144 40.0300479,76.1612855 40.0300479,75.293045 L40.0300479,69.5610632 C40.0300479,68.6976381 39.3361524,67.9976938 38.4667443,67.9976938 C37.6033555,67.9976938 36.9034406,68.6928227 36.9034406,69.5610632 L36.9034406,75.293045 C36.9034406,76.1564701 37.5973361,76.8564144 38.4667443,76.8564144 Z M19.2763271,71.7143577 C20.0240437,72.146052 20.9777523,71.8940101 21.4118725,71.1420918 L24.2778634,66.17805 C24.7095759,65.4303019 24.458617,64.4771846 23.7056874,64.0424805 C22.9579708,63.6107861 22.0042623,63.862828 21.5701421,64.6147463 L18.7041511,69.5787882 C18.2724386,70.3265363 18.5233976,71.2796536 19.2763271,71.7143577 Z M5.2279667,57.6659973 C5.65966108,58.4137139 6.61161785,58.6722935 7.36353616,58.2381732 L12.327578,55.3721823 C13.0753261,54.9404698 13.3345479,53.9895665 12.8998438,53.2366369 C12.4681495,52.4889203 11.5161927,52.2303407 10.7642744,52.664461 L5.80023251,55.5304519 C5.05248445,55.9621644 4.79326262,56.9130677 5.2279667,57.6659973 Z M0.0859098925,38.4755801 C0.0859098925,39.3389689 0.781038845,40.0388837 1.64927932,40.0388837 L7.38126113,40.0388837 C8.24468622,40.0388837 8.94463056,39.3449882 8.94463056,38.4755801 C8.94463056,37.6121913 8.2495016,36.9122764 7.38126113,36.9122764 L1.64927932,36.9122764 C0.785854225,36.9122764 0.0859098925,37.6061719 0.0859098925,38.4755801 Z M5.22796666,19.2851629 C4.79627228,20.0328795 5.04831417,20.986588 5.80023247,21.4207083 L10.7642743,24.2866992 C11.5120224,24.7184117 12.4651397,24.4674528 12.8998438,23.7145232 C13.3315382,22.9668066 13.0794963,22.0130981 12.327578,21.5789778 L7.36353612,18.7129869 C6.61578806,18.2812744 5.66267074,18.5322334 5.22796666,19.2851629 Z M19.276327,5.23680249 C18.5286104,5.66849687 18.2700308,6.62045364 18.7041511,7.37237195 L21.570142,12.3364138 C22.0018545,13.0841619 22.9527578,13.3433837 23.7056874,12.9086796 C24.453404,12.4769852 24.7119836,11.5250285 24.2778633,10.7731102 L21.4118724,5.8090683 C20.9801599,5.06132024 20.0292566,4.80209841 19.276327,5.23680249 Z" id="Rectangle-8" fill="#6D6D6D"></path>
                    </g>
                </g>
            </g>
        </g>
    </g>
</svg>