<?xml version="1.0" encoding="UTF-8" standalone="no"?>
<svg width="72px" height="74px" viewBox="0 0 72 74" version="1.1" xmlns="http://www.w3.org/2000/svg" xmlns:xlink="http://www.w3.org/1999/xlink">
    <!-- Generator: Sketch 39.1 (31720) - http://www.bohemiancoding.com/sketch -->
    <title>alarm</title>
    <desc>Created with Sketch.</desc>
    <defs></defs>
    <g id="Welcome" stroke="none" stroke-width="1" fill="none" fill-rule="evenodd">
        <g id="Desktop" transform="translate(-892.000000, -1155.000000)" fill="#FFFFFF">
            <g id="skills" transform="translate(180.000000, 663.000000)">
                <g id="creative-skills" transform="translate(18.000000, 408.000000)">
                    <path d="M742.413096,129.600298 C743.751093,130.940866 743.749379,133.111148 742.40881,134.449145 C741.739383,135.117715 740.863385,135.452 739.986529,135.452 C739.10796,135.452 738.230247,135.116001 737.56082,134.445717 L727.573411,124.441165 C726.931412,123.798309 726.571413,122.926597 726.571413,122.018027 L726.571413,103.565492 C726.571413,101.672067 728.106553,100.136927 729.999978,100.136927 C731.893403,100.136927 733.428542,101.672067 733.428542,103.565492 L733.428542,120.599458 L742.413096,129.600298 Z M729.999121,149.714829 C714.758294,149.714829 702.35889,137.289711 702.35889,122.018027 C702.35889,106.746343 714.758294,94.3220817 729.999121,94.3220817 C745.239948,94.3220817 757.640209,106.746343 757.640209,122.018027 C757.640209,137.289711 745.239948,149.714829 729.999121,149.714829 L729.999121,149.714829 Z M700.858035,97.5843609 C700.82975,95.9943641 701.801748,94.3255102 703.747458,92.6223707 C705.526883,91.2329449 707.175166,90.6578032 708.650306,90.9140884 C709.888018,91.1292308 710.979158,91.913515 711.786585,92.6917992 C708.178021,94.9477947 705.012599,97.8492176 702.456604,101.239211 C701.761462,100.405213 700.884607,99.0680723 700.858035,97.5843609 L700.858035,97.5843609 Z M751.34965,90.9140884 C752.821361,90.6586603 754.473072,91.2338021 756.252497,92.6215136 C758.185351,94.3135103 759.158206,95.9720784 759.142777,97.5509324 C759.129063,98.9986439 758.284779,100.354641 757.545066,101.243497 C754.989071,97.851789 751.822792,94.949509 748.21337,92.6917992 C749.01994,91.913515 750.111938,91.1292308 751.34965,90.9140884 L751.34965,90.9140884 Z M761.200773,107.29577 C762.184771,106.448058 765.905621,102.904636 765.998192,97.706075 C766.065049,93.9749395 764.277053,90.5026606 760.684774,87.3878097 C760.645346,87.353524 760.60506,87.3200955 760.56306,87.2875241 C756.295354,83.9172451 752.514505,83.734674 750.094795,84.1726732 C745.881089,84.9363859 743.086809,87.9140943 741.831097,89.5589482 C738.138533,88.2046652 734.153684,87.4649524 729.999121,87.4649524 C725.845415,87.4649524 721.860565,88.2046652 718.168858,89.5580911 C716.912289,87.9140943 714.118866,84.9363859 709.90516,84.1726732 C707.485451,83.734674 703.704601,83.9181022 699.436895,87.2875241 C699.395753,87.3200955 699.355467,87.353524 699.316038,87.3878097 C695.722903,90.5026606 693.935763,93.9749395 694.001763,97.7069321 C694.094334,102.903779 697.81347,106.446343 698.798325,107.29577 C696.688044,111.764904 695.50176,116.754323 695.50176,122.018027 C695.50176,130.712867 698.731468,138.661137 704.043172,144.740839 C703.997743,144.799982 703.943744,144.849696 703.900887,144.913125 L698.929468,152.385681 C697.880327,153.961964 698.30804,156.090245 699.884323,157.139386 C700.468036,157.528528 701.128035,157.714528 701.780319,157.714528 C702.88946,157.714528 703.977172,157.1771 704.638028,156.184531 L709.097733,149.482544 C714.902293,153.925107 722.145993,156.571959 729.999121,156.571959 C737.911391,156.571959 745.204805,153.883107 751.03165,149.379687 L755.560784,156.184531 C756.220783,157.1771 757.309352,157.714528 758.418493,157.714528 C759.070777,157.714528 759.729919,157.527671 760.314489,157.139386 C761.890772,156.090245 762.318485,153.961964 761.269345,152.384824 L756.297069,144.913125 C756.225926,144.805982 756.138498,144.718553 756.057926,144.622554 C761.308773,138.55828 764.497338,130.656296 764.497338,122.018027 C764.497338,116.75518 763.311055,111.765761 761.200773,107.29577 L761.200773,107.29577 Z" id="alarm"></path>
                </g>
            </g>
        </g>
    </g>
</svg>