<?xml version="1.0" encoding="UTF-8" standalone="no"?>
<svg width="80px" height="73px" viewBox="0 0 80 73" version="1.1" xmlns="http://www.w3.org/2000/svg" xmlns:xlink="http://www.w3.org/1999/xlink">
    <!-- Generator: Sketch 39.1 (31720) - http://www.bohemiancoding.com/sketch -->
    <title>archive</title>
    <desc>Created with Sketch.</desc>
    <defs></defs>
    <g id="Welcome" stroke="none" stroke-width="1" fill="none" fill-rule="evenodd">
        <g id="Desktop" transform="translate(-320.000000, -1309.000000)" fill="#FFFFFF">
            <g id="skills" transform="translate(180.000000, 663.000000)">
                <g id="creative-skills" transform="translate(18.000000, 408.000000)">
                    <path d="M151.735652,287.565217 L172.262609,287.565217 C174.183478,287.565217 175.74087,286.007826 175.74087,284.086957 C175.74087,282.166087 174.183478,280.608696 172.262609,280.608696 L151.735652,280.608696 C149.814783,280.608696 148.257391,282.166087 148.257391,284.086957 C148.257391,286.007826 149.814783,287.565217 151.735652,287.565217 L151.735652,287.565217 Z M193.953043,270.173913 L130.026087,270.173913 L139.106957,303.217391 L161.99913,303.217391 L184.718261,303.217391 L193.953043,270.173913 Z M202,256.793043 L202,266.269565 L202,266.276522 L202,266.278261 L202,266.283478 C202,266.284348 201.99913,266.284348 201.99913,266.284348 C201.997391,266.627826 201.946957,266.95913 201.853043,267.272174 L190.72,307.62087 C190.303478,309.128696 188.931304,310.173913 187.366957,310.173913 L136.446957,310.173913 C134.876522,310.173913 133.50087,309.121739 133.089565,307.606087 L122.142609,267.257391 C122.091304,267.086087 122.053043,266.908696 122.029565,266.727826 C122.006087,266.547826 122,266.367826 122,266.190435 L122,256.793043 C122,254.872174 123.557391,253.314783 125.478261,253.314783 C127.39913,253.314783 128.956522,254.872174 128.956522,256.793043 L128.956522,263.217391 L195.043478,263.217391 L195.043478,256.793043 C195.043478,254.872174 196.60087,253.314783 198.521739,253.314783 C200.442609,253.314783 202,254.872174 202,256.793043 L202,256.793043 Z M144.875652,244.086957 L179.122609,244.086957 C180.803478,244.086957 182.166087,242.724348 182.166087,241.043478 C182.166087,239.362609 180.803478,238 179.122609,238 L144.875652,238 C143.194783,238 141.832174,239.362609 141.832174,241.043478 C141.832174,242.724348 143.194783,244.086957 144.875652,244.086957 L144.875652,244.086957 Z M135.691304,252.782609 C135.691304,250.861739 137.249565,249.304348 139.169565,249.304348 L184.828696,249.304348 C186.749565,249.304348 188.306957,250.861739 188.306957,252.782609 C188.306957,254.703478 186.749565,256.26087 184.828696,256.26087 L139.169565,256.26087 C137.249565,256.26087 135.691304,254.703478 135.691304,252.782609 L135.691304,252.782609 Z" id="archive"></path>
                </g>
            </g>
        </g>
    </g>
</svg>