<?xml version="1.0" encoding="UTF-8" standalone="no"?>
<svg width="82px" height="62px" viewBox="0 0 82 62" version="1.1" xmlns="http://www.w3.org/2000/svg" xmlns:xlink="http://www.w3.org/1999/xlink">
    <!-- Generator: Sketch 39.1 (31720) - http://www.bohemiancoding.com/sketch -->
    <title>Group 3</title>
    <desc>Created with Sketch.</desc>
    <defs></defs>
    <g id="Welcome" stroke="none" stroke-width="1" fill="none" fill-rule="evenodd">
        <g id="Desktop" transform="translate(-319.000000, -1315.000000)">
            <g id="skills" transform="translate(180.000000, 663.000000)">
                <g id="Group-7" transform="translate(139.000000, 490.000000)">
                    <g id="Group-3" transform="translate(0.000000, 162.000000)">
                        <path d="M1.33195021,5.20448718 C1.33195021,4.65232142 1.33195021,3.75831688 1.33195021,3.1949844 L1.33195021,1.0432743 C1.33195021,0.48562232 1.77665686,0.0335560705 2.32219474,0.0335560705 L16.9677548,0.0335560705 C17.5146518,0.0335560705 17.9579994,0.479941818 17.9579994,1.0432743 L17.9579994,3.1949844 C17.9579994,3.75263638 18.4043834,4.20470263 18.9571155,4.20470263 L76.6813818,4.20470263 C77.2331784,4.20470263 77.6804979,4.6469831 77.6804979,5.20448718 L77.6804979,56.2063012 C77.6804979,56.758467 77.2321318,57.2060858 76.6872465,57.2060858 L2.32520164,57.2060858 C1.77664402,57.2060858 1.33195021,56.7638053 1.33195021,56.2063012 L1.33195021,5.20448718 Z" id="Rectangle-3" fill="#F39C12"></path>
                        <path d="M5.06791203,9.61889238 C5.11175657,9.07313178 5.59358955,8.63070539 6.14999,8.63070539 L80.1396158,8.63070539 C80.6933864,8.63070539 81.1097251,9.07298587 81.0695103,9.61889238 L77.3106936,60.6439015 C77.2704895,61.1896621 76.7895315,61.6320885 76.2446462,61.6320885 L1.88260137,61.6320885 C1.33404375,61.6320885 0.92488123,61.189808 0.96873749,60.6439015 L5.06791203,9.61889238 Z" id="Rectangle-3" fill="#F1C40F"></path>
                    </g>
                </g>
            </g>
        </g>
    </g>
</svg>