<?xml version="1.0" encoding="UTF-8" standalone="no"?>
<svg width="70px" height="65px" viewBox="0 0 70 65" version="1.1" xmlns="http://www.w3.org/2000/svg" xmlns:xlink="http://www.w3.org/1999/xlink">
    <!-- Generator: Sketch 39.1 (31720) - http://www.bohemiancoding.com/sketch -->
    <title>Group 4</title>
    <desc>Created with Sketch.</desc>
    <defs>
        <linearGradient x1="195.064584%" y1="43.4613673%" x2="-126.153268%" y2="40.7770594%" id="linearGradient-1">
            <stop stop-color="#F40000" offset="0%"></stop>
            <stop stop-color="#A15959" offset="100%"></stop>
        </linearGradient>
        <path d="M3.44500478,17.8952798 C4.05974374,14.0000764 5.7488571,1.61189441 6.66939165,0.906134827 C8.59866624,-0.573010116 9.24703939,3.88663786 9.24703939,3.88663786 L10.226447,11.4649592 C10.6854189,15.0163272 11.2491734,20.785917 11.4868664,24.3703753 L13.8868742,60.5629724 C14.1240127,64.1390689 11.4084664,67.0380675 7.83673408,67.038067 L7.24124679,67.038067 C3.66270813,67.0380665 0.830988516,64.1305643 0.927556967,60.5532917 C0.927556967,60.5532917 1.5418837,29.954128 3.44500478,17.8952798 Z" id="path-2"></path>
        <mask id="mask-3" maskContentUnits="userSpaceOnUse" maskUnits="objectBoundingBox" x="0" y="0" width="12.9761383" height="66.4325731" fill="white">
            <use xlink:href="#path-2"></use>
        </mask>
    </defs>
    <g id="Welcome" stroke="none" stroke-width="1" fill="none" fill-rule="evenodd">
        <g id="Desktop" transform="translate(-895.000000, -1314.000000)">
            <g id="skills" transform="translate(180.000000, 663.000000)">
                <g id="Group-7" transform="translate(139.000000, 490.000000)">
                    <g id="Group-4" transform="translate(571.000000, 156.000000)">
                        <g id="Group" transform="translate(29.387779, 29.591540) rotate(-45.000000) translate(-29.387779, -29.591540) translate(21.887779, -4.408460)" stroke="#A22626" stroke-width="2" fill="url(#linearGradient-1)">
                            <use id="Rectangle-4" mask="url(#mask-3)" transform="translate(7.413228, 33.821781) rotate(1.000000) translate(-7.413228, -33.821781) " xlink:href="#path-2"></use>
                        </g>
                        <path d="M57.3616653,68.4215013 C61.5434432,68.4215013 74.3872549,61.4707546 74.3872549,58.2203686 C74.3872549,56.4262339 70.234165,58.1216215 66.0244635,58.2203687 C62.607561,58.3005192 59.2352026,56.6508125 57.3616653,56.6508125 C53.1798874,56.6508125 49.7898866,59.2857709 49.7898866,62.5361569 C49.7898866,65.7865429 53.1798874,68.4215013 57.3616653,68.4215013 Z" id="Oval-4" stroke="#7D4F26" fill="#B17A49" transform="translate(62.088571, 62.536157) rotate(45.000000) translate(-62.088571, -62.536157) "></path>
                    </g>
                </g>
            </g>
        </g>
    </g>
</svg>